G75*
%MOIN*%
%OFA0B0*%
%FSLAX24Y24*%
%IPPOS*%
%LPD*%
%AMOC8*
5,1,8,0,0,1.08239X$1,22.5*
%
%ADD10C,0.0000*%
%ADD11R,0.0650X0.0937*%
%ADD12C,0.0025*%
%ADD13R,0.0906X0.0335*%
%ADD14R,0.0276X0.0354*%
%ADD15R,0.0551X0.0138*%
%ADD16R,0.0748X0.0709*%
%ADD17R,0.0630X0.0551*%
%ADD18R,0.0354X0.0276*%
%ADD19R,0.0315X0.0315*%
%ADD20R,0.0433X0.0394*%
%ADD21R,0.0394X0.0197*%
D10*
X001050Y002363D02*
X001050Y007088D01*
X009160Y007088D01*
X009160Y002363D01*
X001050Y002363D01*
D11*
X004062Y005068D03*
X006550Y005138D03*
D12*
X007005Y005101D02*
X007005Y005175D01*
X007157Y005175D01*
X007157Y005101D01*
X007005Y005101D01*
X007005Y005125D02*
X007157Y005125D01*
X007157Y005149D02*
X007005Y005149D01*
X007005Y005173D02*
X007157Y005173D01*
X007005Y005298D02*
X007005Y005372D01*
X007157Y005372D01*
X007157Y005298D01*
X007005Y005298D01*
X007005Y005322D02*
X007157Y005322D01*
X007157Y005346D02*
X007005Y005346D01*
X007005Y005370D02*
X007157Y005370D01*
X007005Y005495D02*
X007005Y005569D01*
X007157Y005569D01*
X007157Y005495D01*
X007005Y005495D01*
X007005Y005519D02*
X007157Y005519D01*
X007157Y005543D02*
X007005Y005543D01*
X007005Y005567D02*
X007157Y005567D01*
X007005Y004979D02*
X007005Y004905D01*
X007005Y004979D02*
X007157Y004979D01*
X007157Y004905D01*
X007005Y004905D01*
X007005Y004929D02*
X007157Y004929D01*
X007157Y004953D02*
X007005Y004953D01*
X007005Y004977D02*
X007157Y004977D01*
X007005Y004782D02*
X007005Y004708D01*
X007005Y004782D02*
X007157Y004782D01*
X007157Y004708D01*
X007005Y004708D01*
X007005Y004732D02*
X007157Y004732D01*
X007157Y004756D02*
X007005Y004756D01*
X007005Y004780D02*
X007157Y004780D01*
X005943Y004782D02*
X005943Y004708D01*
X005943Y004782D02*
X006095Y004782D01*
X006095Y004708D01*
X005943Y004708D01*
X005943Y004732D02*
X006095Y004732D01*
X006095Y004756D02*
X005943Y004756D01*
X005943Y004780D02*
X006095Y004780D01*
X005943Y004905D02*
X005943Y004979D01*
X006095Y004979D01*
X006095Y004905D01*
X005943Y004905D01*
X005943Y004929D02*
X006095Y004929D01*
X006095Y004953D02*
X005943Y004953D01*
X005943Y004977D02*
X006095Y004977D01*
X005943Y005101D02*
X005943Y005175D01*
X006095Y005175D01*
X006095Y005101D01*
X005943Y005101D01*
X005943Y005125D02*
X006095Y005125D01*
X006095Y005149D02*
X005943Y005149D01*
X005943Y005173D02*
X006095Y005173D01*
X005943Y005298D02*
X005943Y005372D01*
X006095Y005372D01*
X006095Y005298D01*
X005943Y005298D01*
X005943Y005322D02*
X006095Y005322D01*
X006095Y005346D02*
X005943Y005346D01*
X005943Y005370D02*
X006095Y005370D01*
X005943Y005495D02*
X005943Y005569D01*
X006095Y005569D01*
X006095Y005495D01*
X005943Y005495D01*
X005943Y005519D02*
X006095Y005519D01*
X006095Y005543D02*
X005943Y005543D01*
X005943Y005567D02*
X006095Y005567D01*
X004669Y005499D02*
X004669Y005425D01*
X004517Y005425D01*
X004517Y005499D01*
X004669Y005499D01*
X004669Y005449D02*
X004517Y005449D01*
X004517Y005473D02*
X004669Y005473D01*
X004669Y005497D02*
X004517Y005497D01*
X004669Y005302D02*
X004669Y005228D01*
X004517Y005228D01*
X004517Y005302D01*
X004669Y005302D01*
X004669Y005252D02*
X004517Y005252D01*
X004517Y005276D02*
X004669Y005276D01*
X004669Y005300D02*
X004517Y005300D01*
X004669Y005105D02*
X004669Y005031D01*
X004517Y005031D01*
X004517Y005105D01*
X004669Y005105D01*
X004669Y005055D02*
X004517Y005055D01*
X004517Y005079D02*
X004669Y005079D01*
X004669Y005103D02*
X004517Y005103D01*
X004669Y004908D02*
X004669Y004834D01*
X004517Y004834D01*
X004517Y004908D01*
X004669Y004908D01*
X004669Y004858D02*
X004517Y004858D01*
X004517Y004882D02*
X004669Y004882D01*
X004669Y004906D02*
X004517Y004906D01*
X004669Y004711D02*
X004669Y004637D01*
X004517Y004637D01*
X004517Y004711D01*
X004669Y004711D01*
X004669Y004661D02*
X004517Y004661D01*
X004517Y004685D02*
X004669Y004685D01*
X004669Y004709D02*
X004517Y004709D01*
X003606Y004711D02*
X003606Y004637D01*
X003454Y004637D01*
X003454Y004711D01*
X003606Y004711D01*
X003606Y004661D02*
X003454Y004661D01*
X003454Y004685D02*
X003606Y004685D01*
X003606Y004709D02*
X003454Y004709D01*
X003606Y004834D02*
X003606Y004908D01*
X003606Y004834D02*
X003454Y004834D01*
X003454Y004908D01*
X003606Y004908D01*
X003606Y004858D02*
X003454Y004858D01*
X003454Y004882D02*
X003606Y004882D01*
X003606Y004906D02*
X003454Y004906D01*
X003606Y005031D02*
X003606Y005105D01*
X003606Y005031D02*
X003454Y005031D01*
X003454Y005105D01*
X003606Y005105D01*
X003606Y005055D02*
X003454Y005055D01*
X003454Y005079D02*
X003606Y005079D01*
X003606Y005103D02*
X003454Y005103D01*
X003606Y005228D02*
X003606Y005302D01*
X003606Y005228D02*
X003454Y005228D01*
X003454Y005302D01*
X003606Y005302D01*
X003606Y005252D02*
X003454Y005252D01*
X003454Y005276D02*
X003606Y005276D01*
X003606Y005300D02*
X003454Y005300D01*
X003606Y005425D02*
X003606Y005499D01*
X003606Y005425D02*
X003454Y005425D01*
X003454Y005499D01*
X003606Y005499D01*
X003606Y005449D02*
X003454Y005449D01*
X003454Y005473D02*
X003606Y005473D01*
X003606Y005497D02*
X003454Y005497D01*
D13*
X008139Y005522D03*
X008139Y004755D03*
D14*
X007204Y004262D03*
X006693Y004262D03*
X006693Y003796D03*
X007204Y003796D03*
X007895Y003796D03*
X008407Y003796D03*
X004989Y004225D03*
X004478Y004225D03*
X004689Y003761D03*
X004177Y003761D03*
X003802Y004225D03*
X003290Y004225D03*
X003494Y003463D03*
X002983Y003463D03*
X002983Y003014D03*
X003494Y003014D03*
X003416Y005935D03*
X003928Y005935D03*
D15*
X002593Y005261D03*
X002593Y005005D03*
X002593Y004749D03*
X002593Y004493D03*
X002593Y004237D03*
D16*
X001550Y003174D03*
X001550Y006324D03*
D17*
X006405Y006288D03*
X007586Y006288D03*
D18*
X005302Y005399D03*
X005302Y004888D03*
D19*
X003419Y006432D03*
X002828Y006432D03*
D20*
X006115Y003188D03*
X006785Y003188D03*
D21*
X006231Y004036D03*
X005522Y003781D03*
X005522Y004292D03*
M02*
