%
M48
M72
T01C0.0118
T02C0.0320
%
T01
X2471Y3151
X3396Y3840
X3754Y3838
X3965Y3382
X5700Y4765
X5936Y4391
X6310Y4391
X6554Y4909
X6554Y5362
X5861Y5925
X5700Y5533
X5700Y5139
X4893Y5237
X4888Y4868
X4065Y4831
X4065Y5303
X4857Y5728
X3141Y5375
X3141Y5001
X1865Y4705
X1865Y5492
X1865Y3917
X5936Y3602
X6310Y3603
X7550Y3800
X8141Y4214
X7450Y4888
X7452Y5395
X8126Y5138
X8164Y6279
T02
X4550Y6288
X5400Y6288
X5400Y3170
X4550Y3170
X7450Y3170
X8300Y3170
M30
