G75*
%MOIN*%
%OFA0B0*%
%FSLAX24Y24*%
%IPPOS*%
%LPD*%
%AMOC8*
5,1,8,0,0,1.08239X$1,22.5*
%
%ADD10C,0.0000*%
%ADD11C,0.0020*%
%ADD12OC8,0.0630*%
%ADD13C,0.0315*%
%ADD14C,0.0276*%
%ADD15C,0.0079*%
%ADD16C,0.0238*%
%ADD17C,0.0138*%
D10*
X001050Y002363D02*
X001050Y007088D01*
X009160Y007088D01*
X009160Y002363D01*
X001050Y002363D01*
D11*
X001337Y003912D02*
X001384Y003959D01*
X001337Y004006D01*
X001477Y004006D01*
X001477Y003912D02*
X001337Y003912D01*
X001337Y004060D02*
X001337Y004083D01*
X001360Y004083D01*
X001360Y004060D01*
X001337Y004060D01*
X001337Y004133D02*
X001337Y004203D01*
X001360Y004227D01*
X001384Y004227D01*
X001407Y004203D01*
X001407Y004133D01*
X001337Y004133D02*
X001477Y004133D01*
X001477Y004203D01*
X001454Y004227D01*
X001430Y004227D01*
X001407Y004203D01*
X001407Y004281D02*
X001360Y004281D01*
X001337Y004304D01*
X001337Y004351D01*
X001360Y004374D01*
X001407Y004374D01*
X001430Y004351D01*
X001430Y004304D01*
X001407Y004281D01*
X001430Y004428D02*
X001430Y004498D01*
X001407Y004521D01*
X001360Y004521D01*
X001337Y004498D01*
X001337Y004428D01*
X001477Y004428D01*
X001407Y004575D02*
X001360Y004575D01*
X001337Y004599D01*
X001337Y004645D01*
X001384Y004669D02*
X001384Y004575D01*
X001407Y004575D02*
X001430Y004599D01*
X001430Y004645D01*
X001407Y004669D01*
X001384Y004669D01*
X001384Y004722D02*
X001430Y004769D01*
X001430Y004793D01*
X001430Y004722D02*
X001337Y004722D01*
X001360Y004993D02*
X001337Y005016D01*
X001337Y005063D01*
X001360Y005086D01*
X001407Y005086D01*
X001430Y005063D01*
X001430Y005039D01*
X001407Y004993D01*
X001477Y004993D01*
X001477Y005086D01*
X001454Y005140D02*
X001477Y005163D01*
X001477Y005210D01*
X001454Y005233D01*
X001360Y005140D01*
X001337Y005163D01*
X001337Y005210D01*
X001360Y005233D01*
X001454Y005233D01*
X001430Y005287D02*
X001477Y005334D01*
X001337Y005334D01*
X001337Y005287D02*
X001337Y005381D01*
X001407Y005435D02*
X001407Y005528D01*
X001337Y005505D02*
X001477Y005505D01*
X001407Y005435D01*
X001360Y005140D02*
X001454Y005140D01*
D12*
X004550Y006288D03*
X005400Y006288D03*
X005400Y003170D03*
X004550Y003170D03*
X007450Y003170D03*
X008300Y003170D03*
D13*
X008164Y006279D03*
X001865Y005492D03*
X001865Y004705D03*
X001865Y003917D03*
D14*
X003396Y003840D03*
X003754Y003838D03*
X003965Y003382D03*
X004065Y004831D03*
X004065Y005303D03*
X004857Y005728D03*
X005861Y005925D03*
X006554Y005362D03*
X006554Y004909D03*
X007450Y004888D03*
X008126Y005138D03*
X008141Y004214D03*
X005936Y003602D03*
X004888Y004868D03*
X003141Y005001D03*
X003141Y005375D03*
D15*
X003396Y005119D01*
X003396Y003840D01*
X003254Y004033D02*
X002610Y004033D01*
X002610Y004110D02*
X003258Y004110D01*
X003258Y004036D02*
X003159Y003938D01*
X003159Y003741D01*
X003298Y003602D01*
X003495Y003602D01*
X003634Y003741D01*
X003634Y003938D01*
X003535Y004036D01*
X003535Y005177D01*
X003378Y005334D01*
X003378Y005473D01*
X003239Y005612D01*
X003042Y005612D01*
X002903Y005473D01*
X002903Y005277D01*
X002992Y005188D01*
X002903Y005099D01*
X002903Y004960D01*
X002414Y004470D01*
X002333Y004389D01*
X002333Y003321D01*
X002253Y003241D01*
X002253Y003060D01*
X002381Y002932D01*
X002562Y002932D01*
X002690Y003060D01*
X002690Y003241D01*
X002610Y003321D01*
X002610Y004274D01*
X003100Y004764D01*
X003239Y004764D01*
X003258Y004783D01*
X003258Y004036D01*
X003177Y003955D02*
X002610Y003955D01*
X002610Y003878D02*
X003159Y003878D01*
X003159Y003801D02*
X002610Y003801D01*
X002610Y003724D02*
X003177Y003724D01*
X003254Y003646D02*
X002610Y003646D01*
X002610Y003569D02*
X003817Y003569D01*
X003867Y003619D02*
X003728Y003480D01*
X003728Y003284D01*
X003867Y003145D01*
X004063Y003145D01*
X004202Y003284D01*
X004202Y003423D01*
X004945Y004166D01*
X005026Y004247D01*
X005026Y004672D01*
X005125Y004770D01*
X005125Y004789D01*
X005581Y004333D01*
X005662Y004252D01*
X005766Y004252D01*
X005845Y004172D01*
X006026Y004172D01*
X006123Y004269D01*
X006219Y004172D01*
X006400Y004172D01*
X006427Y004199D01*
X006427Y003917D01*
X006332Y003822D01*
X006219Y003822D01*
X006091Y003694D01*
X006091Y003513D01*
X006219Y003385D01*
X006400Y003385D01*
X006528Y003513D01*
X006528Y003626D01*
X006623Y003721D01*
X006704Y003802D01*
X006704Y004566D01*
X006252Y005019D01*
X006252Y005255D01*
X006170Y005337D01*
X005918Y005589D01*
X005918Y005623D01*
X005790Y005751D01*
X005609Y005751D01*
X005494Y005636D01*
X005494Y005760D01*
X005395Y005858D01*
X005379Y005874D01*
X005572Y005874D01*
X005810Y006112D01*
X005988Y006112D01*
X007213Y004888D01*
X007213Y004790D01*
X007352Y004651D01*
X007548Y004651D01*
X007677Y004780D01*
X007677Y003982D01*
X007640Y004019D01*
X007460Y004019D01*
X007332Y003891D01*
X007332Y003710D01*
X007457Y003585D01*
X007278Y003585D01*
X007036Y003342D01*
X007036Y003339D01*
X005814Y003339D01*
X005814Y003342D01*
X005572Y003585D01*
X005228Y003585D01*
X004986Y003342D01*
X004986Y002999D01*
X005228Y002756D01*
X005572Y002756D01*
X005814Y002999D01*
X005814Y003002D01*
X007036Y003002D01*
X007036Y002999D01*
X007278Y002756D01*
X007622Y002756D01*
X007864Y002999D01*
X007864Y003342D01*
X007625Y003582D01*
X007640Y003582D01*
X007677Y003618D01*
X007677Y003555D01*
X007776Y003457D01*
X007888Y003344D01*
X007886Y003342D01*
X007886Y002999D01*
X008128Y002756D01*
X008472Y002756D01*
X008714Y002999D01*
X008714Y003342D01*
X008472Y003585D01*
X008128Y003585D01*
X008126Y003582D01*
X008014Y003695D01*
X008014Y004005D01*
X008042Y003976D01*
X008239Y003976D01*
X008378Y004115D01*
X008378Y004312D01*
X008264Y004425D01*
X008264Y004942D01*
X008363Y005040D01*
X008363Y005237D01*
X008224Y005376D01*
X008027Y005376D01*
X007888Y005237D01*
X007888Y005196D01*
X007670Y005414D01*
X007670Y005485D01*
X007542Y005613D01*
X007361Y005613D01*
X007233Y005485D01*
X007233Y005343D01*
X006226Y006350D01*
X006128Y006449D01*
X005814Y006449D01*
X005814Y006460D01*
X005572Y006703D01*
X005228Y006703D01*
X004986Y006460D01*
X004986Y006268D01*
X004964Y006289D01*
X004964Y006460D01*
X004722Y006703D01*
X004378Y006703D01*
X004136Y006460D01*
X004136Y006117D01*
X004378Y005874D01*
X004722Y005874D01*
X004813Y005965D01*
X005157Y005620D01*
X005157Y005149D01*
X005111Y005195D01*
X005111Y005328D01*
X004983Y005456D01*
X004802Y005456D01*
X004674Y005328D01*
X004674Y005147D01*
X004752Y005069D01*
X004650Y004967D01*
X004650Y004770D01*
X004749Y004672D01*
X004749Y004362D01*
X004006Y003619D01*
X003867Y003619D01*
X004033Y003646D02*
X003539Y003646D01*
X003616Y003724D02*
X004110Y003724D01*
X004187Y003801D02*
X003634Y003801D01*
X003634Y003878D02*
X004265Y003878D01*
X004342Y003955D02*
X003616Y003955D01*
X003539Y004033D02*
X004419Y004033D01*
X004496Y004110D02*
X003535Y004110D01*
X003535Y004187D02*
X004574Y004187D01*
X004651Y004264D02*
X003535Y004264D01*
X003535Y004341D02*
X004728Y004341D01*
X004749Y004419D02*
X003535Y004419D01*
X003535Y004496D02*
X004749Y004496D01*
X004749Y004573D02*
X003535Y004573D01*
X003535Y004650D02*
X004749Y004650D01*
X004693Y004728D02*
X003535Y004728D01*
X003535Y004805D02*
X004650Y004805D01*
X004650Y004882D02*
X003535Y004882D01*
X003535Y004959D02*
X004650Y004959D01*
X004720Y005037D02*
X003535Y005037D01*
X003535Y005114D02*
X004707Y005114D01*
X004674Y005191D02*
X003521Y005191D01*
X003443Y005268D02*
X004674Y005268D01*
X004692Y005346D02*
X003378Y005346D01*
X003378Y005423D02*
X004769Y005423D01*
X004893Y005237D02*
X004893Y005218D01*
X005719Y004391D01*
X005936Y004391D01*
X006118Y004264D02*
X006127Y004264D01*
X006205Y004187D02*
X006041Y004187D01*
X005831Y004187D02*
X004966Y004187D01*
X004945Y004166D02*
X004945Y004166D01*
X004889Y004110D02*
X006427Y004110D01*
X006415Y004187D02*
X006427Y004187D01*
X006427Y004033D02*
X004812Y004033D01*
X004734Y003955D02*
X006427Y003955D01*
X006388Y003878D02*
X004657Y003878D01*
X004580Y003801D02*
X006198Y003801D01*
X006121Y003724D02*
X004503Y003724D01*
X004425Y003646D02*
X006091Y003646D01*
X006091Y003569D02*
X005587Y003569D01*
X005664Y003492D02*
X006112Y003492D01*
X006190Y003415D02*
X005742Y003415D01*
X005213Y003569D02*
X004348Y003569D01*
X004271Y003492D02*
X005136Y003492D01*
X005058Y003415D02*
X004202Y003415D01*
X004202Y003337D02*
X004986Y003337D01*
X004986Y003260D02*
X004178Y003260D01*
X004101Y003183D02*
X004986Y003183D01*
X004986Y003106D02*
X002690Y003106D01*
X002690Y003183D02*
X003829Y003183D01*
X003752Y003260D02*
X002671Y003260D01*
X002610Y003337D02*
X003728Y003337D01*
X003728Y003415D02*
X002610Y003415D01*
X002610Y003492D02*
X003739Y003492D01*
X003965Y003382D02*
X004888Y004305D01*
X004888Y004868D01*
X005082Y004728D02*
X005186Y004728D01*
X005263Y004650D02*
X005026Y004650D01*
X005026Y004573D02*
X005341Y004573D01*
X005418Y004496D02*
X005026Y004496D01*
X005026Y004419D02*
X005495Y004419D01*
X005572Y004341D02*
X005026Y004341D01*
X005026Y004264D02*
X005650Y004264D01*
X005956Y004745D02*
X005956Y004981D01*
X005798Y005139D01*
X005700Y005139D01*
X005778Y005533D02*
X006113Y005198D01*
X006113Y004962D01*
X006566Y004509D01*
X006566Y003859D01*
X006310Y003603D01*
X006528Y003569D02*
X007263Y003569D01*
X007186Y003492D02*
X006507Y003492D01*
X006430Y003415D02*
X007108Y003415D01*
X007395Y003646D02*
X006549Y003646D01*
X006626Y003724D02*
X007332Y003724D01*
X007332Y003801D02*
X006703Y003801D01*
X006704Y003878D02*
X007332Y003878D01*
X007396Y003955D02*
X006704Y003955D01*
X006704Y004033D02*
X007677Y004033D01*
X007677Y004110D02*
X006704Y004110D01*
X006704Y004187D02*
X007677Y004187D01*
X007677Y004264D02*
X006704Y004264D01*
X006704Y004341D02*
X007677Y004341D01*
X007677Y004419D02*
X006704Y004419D01*
X006704Y004496D02*
X007677Y004496D01*
X007677Y004573D02*
X006698Y004573D01*
X006620Y004650D02*
X007677Y004650D01*
X007677Y004728D02*
X007625Y004728D01*
X007275Y004728D02*
X006543Y004728D01*
X006466Y004805D02*
X007213Y004805D01*
X007213Y004882D02*
X006389Y004882D01*
X006311Y004959D02*
X007141Y004959D01*
X007064Y005037D02*
X006252Y005037D01*
X006252Y005114D02*
X006987Y005114D01*
X006909Y005191D02*
X006252Y005191D01*
X006239Y005268D02*
X006832Y005268D01*
X006755Y005346D02*
X006161Y005346D01*
X006084Y005423D02*
X006678Y005423D01*
X006600Y005500D02*
X006007Y005500D01*
X005930Y005577D02*
X006523Y005577D01*
X006446Y005655D02*
X005886Y005655D01*
X005809Y005732D02*
X006369Y005732D01*
X006291Y005809D02*
X005445Y005809D01*
X005494Y005732D02*
X005590Y005732D01*
X005513Y005655D02*
X005494Y005655D01*
X005700Y005533D02*
X005778Y005533D01*
X005584Y005886D02*
X006214Y005886D01*
X006137Y005964D02*
X005661Y005964D01*
X005738Y006041D02*
X006060Y006041D01*
X006304Y006273D02*
X009021Y006273D01*
X009021Y006350D02*
X006227Y006350D01*
X006149Y006427D02*
X009021Y006427D01*
X009021Y006504D02*
X005770Y006504D01*
X005693Y006581D02*
X009021Y006581D01*
X009021Y006659D02*
X005616Y006659D01*
X005184Y006659D02*
X004766Y006659D01*
X004843Y006581D02*
X005107Y006581D01*
X005030Y006504D02*
X004920Y006504D01*
X004964Y006427D02*
X004986Y006427D01*
X004986Y006350D02*
X004964Y006350D01*
X004981Y006273D02*
X004986Y006273D01*
X004814Y005964D02*
X004811Y005964D01*
X004734Y005886D02*
X004891Y005886D01*
X004969Y005809D02*
X001189Y005809D01*
X001189Y005732D02*
X005046Y005732D01*
X005123Y005655D02*
X001189Y005655D01*
X001215Y005651D02*
X001192Y005628D01*
X001192Y003823D01*
X001215Y003800D01*
X001582Y003800D01*
X001605Y003823D01*
X001605Y005628D01*
X001582Y005651D01*
X001215Y005651D01*
X001192Y005577D02*
X001189Y005577D01*
X001189Y005500D02*
X001192Y005500D01*
X001189Y005423D02*
X001192Y005423D01*
X001189Y005346D02*
X001192Y005346D01*
X001189Y005268D02*
X001192Y005268D01*
X001189Y005191D02*
X001192Y005191D01*
X001189Y005114D02*
X001192Y005114D01*
X001189Y005037D02*
X001192Y005037D01*
X001189Y004959D02*
X001192Y004959D01*
X001189Y004882D02*
X001192Y004882D01*
X001189Y004805D02*
X001192Y004805D01*
X001189Y004728D02*
X001192Y004728D01*
X001189Y004650D02*
X001192Y004650D01*
X001189Y004573D02*
X001192Y004573D01*
X001189Y004496D02*
X001192Y004496D01*
X001189Y004419D02*
X001192Y004419D01*
X001189Y004341D02*
X001192Y004341D01*
X001189Y004264D02*
X001192Y004264D01*
X001189Y004187D02*
X001192Y004187D01*
X001189Y004110D02*
X001192Y004110D01*
X001189Y004033D02*
X001192Y004033D01*
X001189Y003955D02*
X001192Y003955D01*
X001189Y003878D02*
X001192Y003878D01*
X001189Y003801D02*
X001214Y003801D01*
X001189Y003724D02*
X002333Y003724D01*
X002333Y003801D02*
X001583Y003801D01*
X001605Y003878D02*
X002333Y003878D01*
X002333Y003955D02*
X001605Y003955D01*
X001605Y004033D02*
X002333Y004033D01*
X002333Y004110D02*
X001605Y004110D01*
X001605Y004187D02*
X002333Y004187D01*
X002333Y004264D02*
X001605Y004264D01*
X001605Y004341D02*
X002333Y004341D01*
X002362Y004419D02*
X001605Y004419D01*
X001605Y004496D02*
X002439Y004496D01*
X002517Y004573D02*
X001605Y004573D01*
X001605Y004650D02*
X002594Y004650D01*
X002671Y004728D02*
X001605Y004728D01*
X001605Y004805D02*
X002748Y004805D01*
X002825Y004882D02*
X001605Y004882D01*
X001605Y004959D02*
X002903Y004959D01*
X002903Y005037D02*
X001605Y005037D01*
X001605Y005114D02*
X002918Y005114D01*
X002989Y005191D02*
X001605Y005191D01*
X001605Y005268D02*
X002912Y005268D01*
X002903Y005346D02*
X001605Y005346D01*
X001605Y005423D02*
X002903Y005423D01*
X002930Y005500D02*
X001605Y005500D01*
X001605Y005577D02*
X003007Y005577D01*
X003274Y005577D02*
X005157Y005577D01*
X005157Y005500D02*
X003351Y005500D01*
X003141Y005001D02*
X002471Y004332D01*
X002471Y003151D01*
X002253Y003183D02*
X001189Y003183D01*
X001189Y003260D02*
X002272Y003260D01*
X002333Y003337D02*
X001189Y003337D01*
X001189Y003415D02*
X002333Y003415D01*
X002333Y003492D02*
X001189Y003492D01*
X001189Y003569D02*
X002333Y003569D01*
X002333Y003646D02*
X001189Y003646D01*
X001189Y003106D02*
X002253Y003106D01*
X002285Y003028D02*
X001189Y003028D01*
X001189Y002951D02*
X002362Y002951D01*
X002581Y002951D02*
X005033Y002951D01*
X004986Y003028D02*
X002658Y003028D01*
X001189Y002874D02*
X005110Y002874D01*
X005188Y002797D02*
X001189Y002797D01*
X001189Y002719D02*
X009021Y002719D01*
X009021Y002642D02*
X001189Y002642D01*
X001189Y002565D02*
X009021Y002565D01*
X009021Y002503D02*
X001189Y002503D01*
X001189Y006948D01*
X009021Y006948D01*
X009021Y002503D01*
X009021Y002797D02*
X008512Y002797D01*
X008590Y002874D02*
X009021Y002874D01*
X009021Y002951D02*
X008667Y002951D01*
X008714Y003028D02*
X009021Y003028D01*
X009021Y003106D02*
X008714Y003106D01*
X008714Y003183D02*
X009021Y003183D01*
X009021Y003260D02*
X008714Y003260D01*
X008714Y003337D02*
X009021Y003337D01*
X009021Y003415D02*
X008642Y003415D01*
X008564Y003492D02*
X009021Y003492D01*
X009021Y003569D02*
X008487Y003569D01*
X008062Y003646D02*
X009021Y003646D01*
X009021Y003724D02*
X008014Y003724D01*
X008014Y003801D02*
X009021Y003801D01*
X009021Y003878D02*
X008014Y003878D01*
X008014Y003955D02*
X009021Y003955D01*
X009021Y004033D02*
X008295Y004033D01*
X008372Y004110D02*
X009021Y004110D01*
X009021Y004187D02*
X008378Y004187D01*
X008378Y004264D02*
X009021Y004264D01*
X009021Y004341D02*
X008348Y004341D01*
X008271Y004419D02*
X009021Y004419D01*
X009021Y004496D02*
X008264Y004496D01*
X008264Y004573D02*
X009021Y004573D01*
X009021Y004650D02*
X008264Y004650D01*
X008264Y004728D02*
X009021Y004728D01*
X009021Y004805D02*
X008264Y004805D01*
X008264Y004882D02*
X009021Y004882D01*
X009021Y004959D02*
X008282Y004959D01*
X008359Y005037D02*
X009021Y005037D01*
X009021Y005114D02*
X008363Y005114D01*
X008363Y005191D02*
X009021Y005191D01*
X009021Y005268D02*
X008331Y005268D01*
X008254Y005346D02*
X009021Y005346D01*
X009021Y005423D02*
X007670Y005423D01*
X007655Y005500D02*
X009021Y005500D01*
X009021Y005577D02*
X007578Y005577D01*
X007325Y005577D02*
X006999Y005577D01*
X007076Y005500D02*
X007248Y005500D01*
X007233Y005423D02*
X007154Y005423D01*
X007231Y005346D02*
X007233Y005346D01*
X006922Y005655D02*
X009021Y005655D01*
X009021Y005732D02*
X006845Y005732D01*
X006767Y005809D02*
X009021Y005809D01*
X009021Y005886D02*
X006690Y005886D01*
X006613Y005964D02*
X009021Y005964D01*
X009021Y006041D02*
X006536Y006041D01*
X006458Y006118D02*
X009021Y006118D01*
X009021Y006195D02*
X006381Y006195D01*
X005157Y005423D02*
X005016Y005423D01*
X005093Y005346D02*
X005157Y005346D01*
X005157Y005268D02*
X005111Y005268D01*
X005115Y005191D02*
X005157Y005191D01*
X005956Y004745D02*
X006310Y004391D01*
X007550Y003800D02*
X007845Y003800D01*
X007845Y003625D01*
X007741Y003492D02*
X007714Y003492D01*
X007677Y003569D02*
X007637Y003569D01*
X007792Y003415D02*
X007818Y003415D01*
X007864Y003337D02*
X007886Y003337D01*
X007886Y003260D02*
X007864Y003260D01*
X007864Y003183D02*
X007886Y003183D01*
X007886Y003106D02*
X007864Y003106D01*
X007864Y003028D02*
X007886Y003028D01*
X007933Y002951D02*
X007817Y002951D01*
X007740Y002874D02*
X008010Y002874D01*
X008088Y002797D02*
X007662Y002797D01*
X007238Y002797D02*
X005612Y002797D01*
X005690Y002874D02*
X007160Y002874D01*
X007083Y002951D02*
X005767Y002951D01*
X008126Y004229D02*
X008141Y004214D01*
X008126Y004229D02*
X008126Y005138D01*
X008100Y005138D01*
X007920Y005268D02*
X007816Y005268D01*
X007739Y005346D02*
X007997Y005346D01*
X009021Y006736D02*
X001189Y006736D01*
X001189Y006813D02*
X009021Y006813D01*
X009021Y006890D02*
X001189Y006890D01*
X001189Y006659D02*
X004334Y006659D01*
X004257Y006581D02*
X001189Y006581D01*
X001189Y006504D02*
X004180Y006504D01*
X004136Y006427D02*
X001189Y006427D01*
X001189Y006350D02*
X004136Y006350D01*
X004136Y006273D02*
X001189Y006273D01*
X001189Y006195D02*
X004136Y006195D01*
X004136Y006118D02*
X001189Y006118D01*
X001189Y006041D02*
X004212Y006041D01*
X004289Y005964D02*
X001189Y005964D01*
X001189Y005886D02*
X004366Y005886D01*
X003258Y004728D02*
X003063Y004728D01*
X002986Y004650D02*
X003258Y004650D01*
X003258Y004573D02*
X002909Y004573D01*
X002832Y004496D02*
X003258Y004496D01*
X003258Y004419D02*
X002754Y004419D01*
X002677Y004341D02*
X003258Y004341D01*
X003258Y004264D02*
X002610Y004264D01*
X002610Y004187D02*
X003258Y004187D01*
D16*
X002471Y003151D03*
X004893Y005237D03*
X005700Y005139D03*
X005700Y005533D03*
X005700Y004765D03*
X005936Y004391D03*
X006310Y004391D03*
X006310Y003603D03*
X007550Y003800D03*
X007452Y005395D03*
D17*
X007845Y005001D01*
X007845Y003625D01*
X008300Y003170D01*
X007450Y003170D02*
X005400Y003170D01*
X005680Y004765D02*
X005326Y005119D01*
X005326Y005690D01*
X004727Y006288D01*
X004550Y006288D01*
X005400Y006281D02*
X005400Y006288D01*
X005400Y006281D02*
X006058Y006281D01*
X007450Y004888D01*
X005700Y004765D02*
X005680Y004765D01*
M02*
