G75*
%MOIN*%
%OFA0B0*%
%FSLAX24Y24*%
%IPPOS*%
%LPD*%
%AMOC8*
5,1,8,0,0,1.08239X$1,22.5*
%
%ADD10C,0.0000*%
%ADD11C,0.0020*%
D10*
X001050Y002363D02*
X001050Y007088D01*
X009160Y007088D01*
X009160Y002363D01*
X001050Y002363D01*
D11*
X003702Y002895D02*
X003731Y002865D01*
X003790Y002865D01*
X003820Y002895D01*
X003820Y002954D01*
X003761Y002954D01*
X003820Y003013D02*
X003790Y003042D01*
X003731Y003042D01*
X003702Y003013D01*
X003702Y002895D01*
X003883Y002865D02*
X003883Y003042D01*
X004001Y002865D01*
X004001Y003042D01*
X004064Y003042D02*
X004153Y003042D01*
X004182Y003013D01*
X004182Y002895D01*
X004153Y002865D01*
X004064Y002865D01*
X004064Y003042D01*
X002530Y006192D02*
X002412Y006192D01*
X002383Y006222D01*
X002383Y006281D01*
X002412Y006310D01*
X002383Y006373D02*
X002560Y006373D01*
X002530Y006310D02*
X002560Y006281D01*
X002560Y006222D01*
X002530Y006192D01*
X002471Y006373D02*
X002471Y006491D01*
X002412Y006555D02*
X002530Y006555D01*
X002560Y006584D01*
X002560Y006643D01*
X002530Y006673D01*
X002471Y006673D01*
X002471Y006614D01*
X002412Y006673D02*
X002383Y006643D01*
X002383Y006584D01*
X002412Y006555D01*
X002383Y006491D02*
X002560Y006491D01*
X003957Y006243D02*
X004134Y006243D01*
X004134Y006361D01*
X004046Y006424D02*
X004046Y006542D01*
X003987Y006483D02*
X004105Y006483D01*
M02*
